<svg id="visual" viewBox="0 0 960 540" width="960" height="540" xmlns="http://www.w3.org/2000/svg" xmlns:xlink="http://www.w3.org/1999/xlink" version="1.1"><rect x="0" y="0" width="960" height="540" fill="#54110c"></rect><path d="M0 383L22.8 388.8C45.7 394.7 91.3 406.3 137 399.8C182.7 393.3 228.3 368.7 274 369.2C319.7 369.7 365.3 395.3 411.2 391.2C457 387 503 353 548.8 337.5C594.7 322 640.3 325 686 323.2C731.7 321.3 777.3 314.7 823 313.2C868.7 311.7 914.3 315.3 937.2 317.2L960 319L960 541L937.2 541C914.3 541 868.7 541 823 541C777.3 541 731.7 541 686 541C640.3 541 594.7 541 548.8 541C503 541 457 541 411.2 541C365.3 541 319.7 541 274 541C228.3 541 182.7 541 137 541C91.3 541 45.7 541 22.8 541L0 541Z" fill="#991b1b"></path><path d="M0 411L22.8 412.5C45.7 414 91.3 417 137 422.8C182.7 428.7 228.3 437.3 274 437.8C319.7 438.3 365.3 430.7 411.2 415.3C457 400 503 377 548.8 367.7C594.7 358.3 640.3 362.7 686 378C731.7 393.3 777.3 419.7 823 418.5C868.7 417.3 914.3 388.7 937.2 374.3L960 360L960 541L937.2 541C914.3 541 868.7 541 823 541C777.3 541 731.7 541 686 541C640.3 541 594.7 541 548.8 541C503 541 457 541 411.2 541C365.3 541 319.7 541 274 541C228.3 541 182.7 541 137 541C91.3 541 45.7 541 22.8 541L0 541Z" fill="#861416"></path><path d="M0 461L22.8 457.7C45.7 454.3 91.3 447.7 137 449.2C182.7 450.7 228.3 460.3 274 457.8C319.7 455.3 365.3 440.7 411.2 426.5C457 412.3 503 398.7 548.8 392.3C594.7 386 640.3 387 686 393.7C731.7 400.3 777.3 412.7 823 422.3C868.7 432 914.3 439 937.2 442.5L960 446L960 541L937.2 541C914.3 541 868.7 541 823 541C777.3 541 731.7 541 686 541C640.3 541 594.7 541 548.8 541C503 541 457 541 411.2 541C365.3 541 319.7 541 274 541C228.3 541 182.7 541 137 541C91.3 541 45.7 541 22.8 541L0 541Z" fill="#740c11"></path><path d="M0 421L22.8 427.7C45.7 434.3 91.3 447.7 137 457.5C182.7 467.3 228.3 473.7 274 475.5C319.7 477.3 365.3 474.7 411.2 471.2C457 467.7 503 463.3 548.8 461.7C594.7 460 640.3 461 686 461.2C731.7 461.3 777.3 460.7 823 454C868.7 447.3 914.3 434.7 937.2 428.3L960 422L960 541L937.2 541C914.3 541 868.7 541 823 541C777.3 541 731.7 541 686 541C640.3 541 594.7 541 548.8 541C503 541 457 541 411.2 541C365.3 541 319.7 541 274 541C228.3 541 182.7 541 137 541C91.3 541 45.7 541 22.8 541L0 541Z" fill="#63050a"></path><path d="M0 511L22.8 513.3C45.7 515.7 91.3 520.3 137 520.2C182.7 520 228.3 515 274 511.5C319.7 508 365.3 506 411.2 500.5C457 495 503 486 548.8 487.3C594.7 488.7 640.3 500.3 686 505.2C731.7 510 777.3 508 823 500.3C868.7 492.7 914.3 479.3 937.2 472.7L960 466L960 541L937.2 541C914.3 541 868.7 541 823 541C777.3 541 731.7 541 686 541C640.3 541 594.7 541 548.8 541C503 541 457 541 411.2 541C365.3 541 319.7 541 274 541C228.3 541 182.7 541 137 541C91.3 541 45.7 541 22.8 541L0 541Z" fill="#520000"></path></svg>